<svg xmlns="http://www.w3.org/2000/svg" width="1200" height="630" viewBox="0 0 1200 630" role="img" aria-labelledby="title desc">
  <title id="title">timewarp-ci social preview</title>
  <desc id="desc">Social preview image for timewarp-ci with a clock warp logo and tagline.</desc>
  <defs>
    <linearGradient id="bg" x1="0" y1="0" x2="1200" y2="630" gradientUnits="userSpaceOnUse">
      <stop offset="0" stop-color="#0b1020"/>
      <stop offset="0.55" stop-color="#10243c"/>
      <stop offset="1" stop-color="#1e153f"/>
    </linearGradient>
    <linearGradient id="ring" x1="120" y1="130" x2="550" y2="400" gradientUnits="userSpaceOnUse">
      <stop offset="0" stop-color="#22c55e"/>
      <stop offset="0.52" stop-color="#38bdf8"/>
      <stop offset="1" stop-color="#a78bfa"/>
    </linearGradient>
  </defs>
  <rect width="1200" height="630" fill="url(#bg)"/>
  <path d="M92 343c40-125 199-201 380-178 180 24 320 139 313 265-8 126-172 190-346 150" fill="none" stroke="url(#ring)" stroke-width="24" stroke-linecap="round" opacity="0.72" transform="rotate(-12 440 380)"/>
  <path d="M531 155l58 32-54 40 11-37z" fill="#a78bfa"/>
  <circle cx="310" cy="315" r="112" fill="#111827" stroke="#f8fafc" stroke-width="12"/>
  <circle cx="310" cy="315" r="10" fill="#f8fafc"/>
  <path d="M310 242v73l54 36" fill="none" stroke="#f8fafc" stroke-width="12" stroke-linecap="round" stroke-linejoin="round"/>
  <path d="M257 329l37 37 79-91" fill="none" stroke="#22c55e" stroke-width="15" stroke-linecap="round" stroke-linejoin="round"/>
  <text x="650" y="245" font-family="ui-sans-serif, system-ui, -apple-system, BlinkMacSystemFont, Segoe UI, sans-serif" font-size="78" font-weight="850" fill="#f8fafc">timewarp-ci</text>
  <text x="654" y="318" font-family="ui-sans-serif, system-ui, -apple-system, BlinkMacSystemFont, Segoe UI, sans-serif" font-size="38" font-weight="700" fill="#38bdf8">Run your tests through time.</text>
  <text x="654" y="386" font-family="ui-sans-serif, system-ui, -apple-system, BlinkMacSystemFont, Segoe UI, sans-serif" font-size="27" fill="#cbd5e1">Catch timezone, DST, leap-day, month-end,</text>
  <text x="654" y="424" font-family="ui-sans-serif, system-ui, -apple-system, BlinkMacSystemFont, Segoe UI, sans-serif" font-size="27" fill="#cbd5e1">and year-end bugs before production.</text>
</svg>
